<svg xmlns="http://www.w3.org/2000/svg"
shape-rendering="geometricPrecision"
width="4000" height="4000" viewBox="0 0 524 524">
  <metadata>null</metadata>

<path d="
M 23.88 262.164
C 26.037 259.765 27.851 257.028 29.971 254.585
C 36.391 247.191 42.792 239.78 49.149 232.329
C 59.357 220.362 70.074 208.74 80.033 196.575
C 85.534 189.856 91.124 183.192 96.802 176.626
C 98.382 174.799 99.926 172.934 101.544 171.14
C 102.154 170.464 102.802 169.365 103.65 168.977
C 105.104 168.313 107.913 168.789 109.504 168.783
C 114.171 168.768 118.837 168.774 123.504 168.784
C 134.337 168.808 145.17 168.804 156.003 168.798
C 161.444 168.796 167.246 168.263 172.644 168.914
C 173.006 169.676 172.732 170.918 172.712 171.734
C 172.668 173.488 172.698 175.246 172.696 177.001
C 172.689 183.501 172.714 190.001 172.729 196.501
C 172.765 213 172.757 229.5 172.717 245.999
C 172.704 251.332 172.716 256.665 172.693 261.998
C 172.682 264.434 172.982 267.111 172.633 269.495
C 168.566 264.604 163.502 260.483 159.263 255.718
C 158.069 254.377 156.433 253.169 155.597 251.57
C 154.513 237.049 155.071 222.042 155.541 207.492
C 155.77 200.404 155.096 193.208 155.635 186.145
C 149.305 185.285 142.396 186.076 136.003 186.076
C 128.271 186.076 120.093 185.292 112.41 186.214
C 110.304 187.512 108.418 190.407 106.761 192.267
C 102.01 197.603 97.488 203.136 92.831 208.554
C 82.46 220.619 72.005 232.626 61.545 244.617
C 56.422 250.49 51.741 257.082 46.104 262.468
C 43.96 263.11 40.952 262.551 38.712 262.54
C 33.722 262.515 28.693 262.638 23.722 262.57
C 23.775 262.435 23.827 262.299 23.88 262.164 Z"
opacity="1" fill="rgb(10,81,128)" fill-rule="evenodd" />
<path d="
M 23.871 280.301
C 26.55 279.532 29.748 279.907 32.514 279.896
C 37.677 279.875 42.838 279.809 48.001 279.811
C 50.219 279.812 53.691 280.475 55.755 279.697
C 77.255 256.041 97.422 231.086 118.344 206.915
C 118.935 206.231 119.664 205.158 120.527 204.811
C 121.877 204.267 124.04 204.634 125.493 204.598
C 129.329 204.503 133.17 204.527 137.006 204.576
C 138.657 204.598 140.306 204.629 141.952 204.724
C 142.34 204.747 142.993 204.617 143.293 204.912
C 143.018 205.871 141.746 206.805 141.093 207.571
C 139.533 209.399 138.023 211.275 136.395 213.045
C 130.948 218.969 126.17 225.812 120.358 231.358
C 115.316 236.482 110.967 242.5 106.24 247.935
C 97.216 258.309 88.312 268.788 79.255 279.135
C 75.658 283.244 71.95 287.282 68.452 291.475
C 66.93 293.3 64.989 296.659 62.894 297.777
C 54.368 298.497 45.556 297.832 36.999 297.836
C 33.999 297.838 30.998 297.818 27.997 297.813
C 26.773 297.81 25.279 298.081 24.109 297.756
C 23.625 291.977 23.906 286.099 23.871 280.301 Z"
opacity="1" fill="rgb(10,80,128)" fill-rule="evenodd" />
<path d="
M 71.978 330.107
C 71.984 329.95 71.99 329.793 71.995 329.637
C 73.088 328.553 76.099 329.141 77.602 329.155
C 82.635 329.201 89.614 328.118 92.23 333.697
C 93.048 335.44 93.064 338.012 92.085 339.701
C 91.632 340.482 90.703 341.106 90.698 342.025
C 95.492 345.19 95.289 352.283 90.289 355.045
C 88.088 356.26 85.462 356.283 83.017 356.333
C 79.374 356.407 75.697 356.425 72.056 356.31
C 71.67 353.086 72.068 349.802 72.043 346.562
C 72.001 341.169 71.514 335.471 71.978 330.107 Z
M 76.335 333.272
C 76.327 335.361 75.699 338.425 76.442 340.393
C 78.978 340.345 81.5 340.589 84.033 340.431
C 84.874 340.378 85.933 340.484 86.694 340.061
C 89.1 338.723 88.756 335.131 86.544 333.814
C 84.1 332.36 79.057 332.993 76.335 333.272 Z
M 76.463 344.337
C 76.416 346.726 75.787 350.025 76.636 352.299
C 79.866 352.181 84.378 353.244 87.377 351.825
C 90.219 350.481 90.397 346.079 87.528 344.692
C 84.633 343.293 79.582 344.311 76.463 344.337 Z"
opacity="1" fill="rgb(9,79,128)" fill-rule="evenodd" />
<path d="
M 102.613 282.83
C 113.388 281.697 124.471 282.455 135.295 282.381
C 139.624 282.351 143.948 282.502 148.272 282.497
C 150.576 282.494 153.264 282.125 155.519 282.581
C 161.771 287.446 166.901 294.244 172.444 299.879
C 171.807 300.291 169.79 299.751 169 299.734
C 165.67 299.661 162.33 299.714 158.999 299.707
C 149.667 299.686 140.336 299.602 131.005 299.595
C 128.171 299.593 125.337 299.583 122.503 299.59
C 121.036 299.593 119.292 299.86 117.881 299.437
C 114.29 295.682 110.834 291.806 107.19 288.101
C 105.82 286.707 103.092 284.694 102.613 282.83 Z"
opacity="1" fill="rgb(8,80,128)" fill-rule="evenodd" />
<path d="
M 103.821 329.378
C 105.194 329.416 106.589 329.221 107.955 329.451
C 107.769 333.518 107.89 337.646 107.906 341.721
C 107.915 344.021 107.717 346.769 108.716 348.905
C 110.934 353.646 118.156 353.915 120.905 349.557
C 122.003 347.817 122.025 345.579 122.041 343.585
C 122.067 340.388 122.037 337.19 122.042 333.992
C 122.045 332.541 121.767 330.695 122.205 329.326
C 123.609 329.276 125.106 329.067 126.495 329.342
C 126.146 334.18 126.429 339.147 126.345 344.003
C 126.289 347.25 126.374 350.35 124.214 353.008
C 119.829 358.405 109.609 357.917 105.701 352.27
C 102.518 347.67 103.739 340.79 103.739 335.499
C 103.739 333.709 103.186 331.025 103.821 329.378 Z"
opacity="1" fill="rgb(17,80,129)" fill-rule="evenodd" />
<path d="
M 120.853 233.1
C 120.985 232.475 121.048 232.228 121.469 231.71
C 127.196 231.081 133.486 231.037 139.231 231.551
C 138.923 238.504 139.235 245.542 139.229 252.505
C 139.227 256.457 138.668 260.843 139.214 264.746
C 133.152 265.233 126.835 264.618 120.755 264.611
C 120.64 257.241 120.666 249.871 120.781 242.5
C 120.829 239.4 120.546 236.181 120.853 233.1 Z"
opacity="1" fill="rgb(12,81,128)" fill-rule="evenodd" />
<path d="
M 137.696 329.257
C 139.119 329.338 140.588 329.08 141.998 329.378
C 141.763 334.704 142.103 340.152 142.103 345.496
C 142.103 348.955 141.621 352.804 142.152 356.219
C 140.981 355.893 139.099 356.164 137.884 356.289
C 137.585 356.073 137.729 355.046 137.726 354.652
C 137.716 352.936 137.729 351.217 137.726 349.5
C 137.715 342.813 137.184 335.921 137.696 329.257 Z"
opacity="1" fill="rgb(22,88,138)" fill-rule="evenodd" />
<path d="
M 153.394 330.09
C 153.377 329.894 153.36 329.698 153.342 329.502
C 154.444 329.18 156.507 328.9 157.612 329.341
C 157.433 334.571 157.468 339.823 157.473 345.064
C 157.476 347.194 156.887 350.267 157.634 352.259
C 162.183 351.869 167.254 352.018 171.809 352.373
C 172.35 353.565 171.719 355.273 172.175 356.541
C 172.332 356.795 171.584 356.455 171.286 356.43
C 170.863 356.394 170.425 356.382 170.001 356.377
C 168.501 356.356 167.002 356.318 165.502 356.295
C 162.667 356.251 159.832 356.252 156.997 356.24
C 155.932 356.235 154.291 356.543 153.329 356.104
C 153.032 347.589 152.641 338.579 153.394 330.09 Z"
opacity="1" fill="rgb(14,78,125)" fill-rule="evenodd" />
<path d="
M 175.741 329.278
C 181.325 329.279 186.918 329.249 192.504 329.234
C 193.493 329.231 197.244 328.707 197.799 329.475
C 197.783 330.727 197.677 332.099 197.836 333.339
C 194.858 333.271 191.838 333.267 188.861 333.368
C 188.002 336.52 188.625 340.507 188.649 343.758
C 188.678 347.634 187.892 352.456 188.769 356.223
C 187.63 356.434 185.718 356.594 184.638 356.13
C 184.523 350.755 184.562 345.376 184.552 339.998
C 184.548 338.302 185.196 334.842 184.207 333.406
C 181.404 333.145 178.462 333.669 175.694 333.215
C 175.62 331.902 175.539 330.581 175.741 329.278 Z"
opacity="1" fill="rgb(14,80,128)" fill-rule="evenodd" />
<path d="
M 210.9 228.701
C 211.921 227.186 212.495 225.237 213.147 223.537
C 214.378 220.327 215.692 217.148 216.97 213.956
C 220.805 204.377 224.772 194.849 228.635 185.28
C 230.153 181.518 231.698 177.762 233.26 174.019
C 233.82 172.675 234.253 170.471 235.364 169.531
C 238.556 169.431 241.765 169.58 244.954 169.477
C 248.266 176.291 250.641 183.747 253.313 190.837
C 258.03 203.352 262.914 215.802 267.413 228.394
C 264.576 228.183 261.56 228.76 258.755 228.212
C 256.842 223.998 256.126 218.801 253.469 214.97
C 247.85 214.561 242.132 214.854 236.501 214.899
C 232.87 214.928 229.079 214.609 225.473 215.036
C 223.051 219.336 221.87 224.339 219.743 228.8
C 217.08 229.592 213.623 228.723 210.83 229.063
C 210.853 228.942 210.877 228.822 210.9 228.701 Z
M 228.955 206.052
C 228.738 206.659 228.842 206.342 228.65 207.003
C 229.652 208.035 232.979 207.394 234.414 207.448
C 238.455 207.601 242.503 207.594 246.547 207.704
C 247.891 207.74 249.943 207.363 251.176 207.787
C 249.638 205.825 248.942 202.39 248.127 200.048
C 246.466 195.273 244.442 190.596 242.579 185.896
C 241.921 184.236 241.339 182.493 240.557 180.889
C 240.316 180.393 240.208 179.297 239.588 179.541
C 237.964 183.889 235.95 188.127 234.301 192.481
C 232.606 196.953 231.11 201.785 228.955 206.052 Z"
opacity="1" fill="rgb(13,82,130)" fill-rule="evenodd" />
<path d="
M 210.977 241.604
C 210.989 241.406 211.001 241.208 211.013 241.011
C 212.146 240.373 213.712 240.606 215.009 240.609
C 217.508 240.617 220.008 240.602 222.507 240.603
C 233.342 240.608 245.787 238.556 253.725 247.664
C 263.245 258.586 257.512 275.995 243.929 279.871
C 249.265 287.21 255.384 293.984 260.616 301.394
C 260.762 301.531 261.457 301.978 261.333 302.146
C 258.979 302.253 256.623 302.112 254.267 302.09
C 253.056 302.079 251.627 302.344 250.476 301.932
C 245.953 297.618 242.138 291.95 238.389 286.958
C 236.914 284.995 235.406 282.451 233.541 280.858
C 231.812 280.559 229.904 280.799 228.15 280.823
C 225.492 280.859 222.735 280.673 220.102 281.057
C 219.796 285.864 219.797 290.682 219.77 295.502
C 219.759 297.405 219.28 299.946 219.708 301.776
C 217.88 302.125 215.622 301.726 213.751 301.704
C 212.923 301.694 211.664 301.979 210.885 301.692
C 210.902 288.063 210.862 274.432 210.932 260.805
C 210.965 254.455 210.498 247.932 210.977 241.604 Z
M 219.995 250.12
C 219.203 257.55 220.218 265.15 219.782 272.598
C 223.526 273.35 228.16 272.674 231.982 272.597
C 235.22 272.532 239.056 273.058 242.076 271.661
C 249.069 268.427 251.967 258.821 246.453 252.802
C 241.74 247.657 233.756 248.908 227.501 248.901
C 225.355 248.899 222.062 248.259 220.077 249.073
C 220.064 249.868 220.106 249.52 219.995 250.12 Z"
opacity="1" fill="rgb(11,82,130)" fill-rule="evenodd" />
<path d="
M 219.455 341.104
C 220.096 336.198 223.493 331.525 228.087 329.638
C 235.603 326.552 245.215 330.254 247.91 338.075
C 248.655 340.236 248.848 342.685 248.581 344.95
C 246.858 359.579 223.811 360.917 219.891 346.96
C 219.366 345.091 219.204 343.026 219.455 341.104 Z
M 223.862 340.576
C 223.598 341.953 223.662 343.387 223.986 344.747
C 226.358 354.729 241.896 355.56 244.141 345.047
C 244.408 343.797 244.376 342.457 244.16 341.202
C 242.374 330.801 225.939 329.751 223.862 340.576 Z"
opacity="1" fill="rgb(12,79,127)" fill-rule="evenodd" />
<path d="
M 258.164 329.243
C 259.411 329.212 261.048 328.855 262.195 329.437
C 264.246 332.543 266.779 335.338 268.97 338.344
C 271.448 341.744 273.935 345.605 276.943 348.543
C 277.456 347.465 276.844 344.741 276.857 343.493
C 276.905 338.979 276.846 334.463 276.918 329.95
C 277.509 329.05 280.356 329.194 281.39 329.456
C 280.582 335.118 281.118 341.286 281.136 346.998
C 281.145 349.841 280.57 353.477 281.31 356.225
C 279.973 356.229 278.618 356.288 277.284 356.216
C 273.559 352.406 270.495 347.58 267.232 343.362
C 266.017 341.79 264.33 338.63 262.402 337.974
C 262.55 342.134 262.438 346.34 262.384 350.503
C 262.36 352.37 262.054 354.472 262.385 356.309
C 261.071 356.234 259.682 356.226 258.375 356.377
C 257.866 356.053 258.045 355.218 258.032 354.642
C 257.994 352.929 258.056 351.207 258.079 349.493
C 258.169 342.768 258.442 335.96 258.164 329.243 Z"
opacity="1" fill="rgb(14,82,130)" fill-rule="evenodd" />
<path d="
M 266.468 278.106
C 267.209 271.868 269.075 266.109 273.597 261.538
C 281.875 253.172 296.078 253.198 304.509 261.226
C 308.457 264.984 310.52 270.299 311.112 275.644
C 311.353 277.826 310.955 280.203 311.333 282.333
C 299.343 281.726 287.311 282.558 275.322 282.267
C 275.205 284.419 276.285 286.599 277.459 288.35
C 281.554 294.459 289.538 295.865 296.299 293.983
C 299.102 293.202 301.355 291.505 304.003 290.459
C 305.471 291.619 308.042 293.649 308.815 295.375
C 306.337 298.746 300.877 300.821 296.992 301.802
C 284.876 304.859 270.532 298.939 267.201 286.085
C 266.527 283.483 266.269 280.786 266.468 278.106 Z
M 275.438 274.092
C 275.309 274.885 275.376 274.49 275.236 275.277
C 278.758 275.692 282.462 275.427 286.006 275.422
C 291.478 275.415 296.978 275.532 302.447 275.352
C 302.8 274.083 301.891 272.165 301.366 271.03
C 299.492 266.977 295.988 263.892 291.557 263.071
C 283.698 261.615 277.442 266.809 275.438 274.092 Z"
opacity="1" fill="rgb(12,81,128)" fill-rule="evenodd" />
<path d="
M 269.818 211.521
C 271.359 207.953 274.328 204.804 276.626 201.707
C 281.145 195.615 285.681 189.53 290.251 183.477
C 292.068 181.071 293.933 178.703 295.711 176.268
C 296.591 175.063 297.409 173.353 298.653 172.522
C 300.555 172.376 302.461 172.443 304.366 172.441
C 304.826 184.95 304.038 197.493 304.4 210.004
C 307.175 210.037 309.944 210.2 312.729 210.101
C 312.786 212.21 312.721 214.321 312.768 216.43
C 309.93 216.499 307.05 216.449 304.221 216.684
C 304.325 220.421 304.083 224.17 304.229 227.909
C 302.325 228.492 299.406 227.878 297.38 227.982
C 296.592 225.608 297.278 222.014 297.254 219.499
C 297.246 218.651 297.483 217.239 297.097 216.498
C 294.766 216.188 292.339 216.504 289.997 216.554
C 283.489 216.692 276.662 217.042 270.182 216.384
C 269.709 214.926 269.526 213.033 269.818 211.521 Z
M 278.941 209.675
C 278.868 209.844 278.795 210.012 278.721 210.181
C 284.82 210.534 291.18 210.334 297.293 210.125
C 297.951 203.582 297.438 196.579 297.404 189.996
C 297.396 188.504 297.422 187.015 297.489 185.526
C 297.502 185.232 297.67 184.267 297.31 184.123
C 293.578 189.677 289.573 195.059 285.598 200.454
C 283.362 203.488 281.342 206.779 278.941 209.675 Z"
opacity="1" fill="rgb(12,80,128)" fill-rule="evenodd" />
<path d="
M 305.5 332.641
C 305.597 331.507 305.542 330.372 305.708 329.243
C 313.036 329.538 320.42 329.179 327.753 329.214
C 327.732 329.856 327.983 333.259 327.535 333.415
C 325.075 333.288 320.742 332.515 318.609 333.715
C 318.124 339.262 318.583 344.962 318.574 350.535
C 318.571 352.408 318.905 354.6 318.573 356.437
C 317.19 356.447 315.806 356.384 314.422 356.386
C 313.934 348.85 314.235 341.102 314.298 333.551
C 311.467 332.829 308.358 333.828 305.53 333.216
C 305.52 333.024 305.51 332.833 305.5 332.641 Z"
opacity="1" fill="rgb(15,78,128)" fill-rule="evenodd" />
<path d="
M 318.96 275.591
C 320.526 269.758 322.82 264.451 327.581 260.486
C 334.554 254.68 345.677 253.642 353.351 258.67
C 355.321 259.96 356.759 261.724 358.201 263.557
C 358.859 261.639 358.209 258.785 358.231 256.761
C 360.972 256.742 363.709 256.662 366.45 256.756
C 366.083 261.438 366.424 266.305 366.419 271.008
C 366.407 281.236 366.518 291.476 366.617 301.69
C 364.157 301.24 360.948 301.622 358.47 301.9
C 357.754 300.41 358.251 297.356 358.232 295.659
C 356.722 296.207 355.537 298.138 354.173 299.074
C 351.225 301.098 347.474 302.335 343.936 302.724
C 328.86 304.381 315.87 290.579 318.96 275.591 Z
M 327.881 276.078
C 326.38 282.961 329.721 290.703 336.181 293.693
C 344.37 297.484 355.612 292.466 357.551 283.399
C 358.996 276.64 356.306 268.562 350.013 265.12
C 340.943 260.159 329.985 266.436 327.881 276.078 Z"
opacity="1" fill="rgb(9,81,129)" fill-rule="evenodd" />
<path d="
M 335.47 343.118
C 335.944 338.708 335.6 334.011 335.526 329.58
C 336.733 328.779 339.283 329.32 340.7 329.31
C 345.515 329.277 351.869 328.326 355.434 332.361
C 359.754 337.251 356.599 344.72 350.958 346.606
C 351.357 347.836 352.446 348.752 353.252 349.742
C 355.103 352.015 356.982 354.288 358.99 356.419
C 358.57 356.583 357.998 356.365 357.573 356.33
C 356.282 356.223 354.521 356.641 353.343 356.076
C 351.275 352.964 348.49 349.972 345.923 347.257
C 344.256 346.518 341.496 346.871 339.726 347.122
C 339.784 350.038 339.141 353.411 339.76 356.278
C 338.344 356.437 336.883 356.245 335.459 356.385
C 335.02 355.173 335.406 353.393 335.407 352.094
C 335.409 349.104 335.305 346.105 335.47 343.118 Z
M 339.839 333.435
C 339.363 336.295 339.264 340.137 339.834 342.988
C 343.089 342.921 347.622 343.734 350.603 342.207
C 353.892 340.522 353.66 335.678 350.485 333.944
C 347.668 332.406 342.931 333.243 339.839 333.435 Z"
opacity="1" fill="rgb(12,79,129)" fill-rule="evenodd" />
<path d="
M 367.416 329.311
C 368.872 329.257 370.322 329.172 371.781 329.245
C 371.908 333.234 371.765 337.256 371.753 341.249
C 371.746 343.624 371.531 346.263 372.461 348.503
C 374.489 353.385 382.467 354.266 384.972 349.299
C 386.073 347.118 385.783 344.364 385.784 342.001
C 385.787 337.78 385.773 333.56 385.828 329.339
C 387.27 329.193 388.781 329.046 390.221 329.247
C 389.789 333.832 390.264 338.651 390.24 343.264
C 390.226 345.914 390.217 348.77 389.05 351.217
C 385.634 358.375 373.076 358.679 369.103 351.892
C 367.638 349.39 367.54 346.609 367.467 343.79
C 367.344 338.987 367.848 334.092 367.416 329.311 Z"
opacity="1" fill="rgb(16,80,130)" fill-rule="evenodd" />
<path d="
M 380.475 241.106
C 380.499 240.88 380.523 240.653 380.548 240.427
C 382.861 239.717 387.031 239.522 389.426 239.958
C 388.969 244.038 389.355 248.39 389.318 252.501
C 389.232 262 389.295 271.501 389.288 281.001
C 389.284 285.668 389.29 290.335 389.286 295.002
C 389.285 297.079 388.832 299.842 389.349 301.834
C 386.513 301.834 383.48 302.039 380.669 301.711
C 380.256 290.983 380.855 280.223 380.535 269.491
C 380.356 263.499 380.443 257.493 380.441 251.497
C 380.44 248.069 380.131 244.517 380.475 241.106 Z"
opacity="1" fill="rgb(14,81,128)" fill-rule="evenodd" />
<path d="
M 399.625 347.788
C 400.853 347.497 402.178 347.121 403.438 347.43
C 404.624 352.1 408.933 353.461 413.289 352.866
C 415.663 352.542 418.532 351.262 418.559 348.453
C 418.587 345.478 414.46 345.104 412.296 344.72
C 407.448 343.86 401.025 343.647 400.274 337.401
C 400.158 336.435 400.191 335.39 400.407 334.44
C 401.2 330.937 404.907 329.288 408.137 328.825
C 414.346 327.935 421.484 330.189 422.38 337.272
C 421.088 337.526 419.723 337.617 418.461 337.989
C 416.91 333.966 413.823 331.832 409.312 332.519
C 407.483 332.798 404.528 333.732 404.462 336.019
C 404.375 339.047 407.78 339.991 410.162 340.365
C 415.185 341.154 422.697 341.492 422.772 348.26
C 422.781 349.08 422.743 349.927 422.502 350.717
C 421.273 354.757 417.306 356.478 413.419 356.807
C 407.141 357.338 399.706 355.306 399.625 347.788 Z"
opacity="1" fill="rgb(9,75,127)" fill-rule="evenodd" />
<path d="
M 402.386 242.044
C 404.912 235.052 415.793 238.966 413.494 245.926
C 411.065 253.278 399.76 249.312 402.386 242.044 Z"
opacity="1" fill="rgb(9,78,130)" fill-rule="evenodd" />
<path d="
M 403.74 256.736
C 405.843 256.608 407.942 256.605 410.049 256.597
C 410.764 256.595 411.927 256.394 412.422 256.931
C 411.721 265.999 412.449 275.405 412.451 284.505
C 412.452 288.339 412.501 292.173 412.441 296.006
C 412.412 297.891 412.07 300.05 412.334 301.9
C 409.576 301.972 406.732 301.693 403.992 302.006
C 403.342 301.155 403.621 299.731 403.622 298.686
C 403.623 295.791 403.669 292.896 403.676 290
C 403.703 278.917 403.897 267.816 403.74 256.736 Z"
opacity="1" fill="rgb(18,79,126)" fill-rule="evenodd" />
<path d="
M 421.431 256.821
C 423.552 256.102 426.592 256.445 428.85 256.399
C 429.049 253.63 428.897 250.776 428.901 247.998
C 428.903 246.869 428.66 245.54 429.087 244.491
C 431.89 244.394 434.72 244.408 437.517 244.45
C 438.628 248.105 437.1 252.631 437.706 256.421
C 441.906 256.526 446.506 255.98 450.647 256.724
C 450.573 259.219 450.67 261.694 450.481 264.188
C 449.376 264.576 447.671 264.282 446.502 264.267
C 443.592 264.229 440.586 263.975 437.687 264.209
C 437.472 271.255 437.562 278.327 437.591 285.377
C 437.605 288.951 437.627 292.465 441.343 294.171
C 443.446 295.136 446.12 295.034 448.321 294.471
C 449.314 294.216 450.817 293.286 451.819 293.376
C 452.24 295.154 452.743 296.849 453.299 298.589
C 453.503 299.227 454.048 300.131 453.9 300.778
C 450.746 301.594 448.015 302.779 444.654 302.713
C 442.589 302.672 440.523 302.459 438.538 301.874
C 430.835 299.603 429.085 292.577 429.049 285.457
C 429.014 278.508 429.373 271.39 428.989 264.464
C 426.56 264.171 423.947 264.201 421.506 264.353
C 420.991 262.013 421.429 259.211 421.431 256.821 Z"
opacity="1" fill="rgb(14,82,129)" fill-rule="evenodd" />
<path d="
M 429.792 329.338
C 437.144 329.321 444.721 328.719 452.051 329.306
C 452.119 330.651 451.789 331.984 451.833 333.335
C 448.865 333.25 445.801 333.253 442.839 333.441
C 441.816 341.001 443.274 348.802 442.549 356.374
C 441.292 356.325 439.695 356.661 438.543 356.128
C 438.75 348.626 438.502 341.088 438.514 333.591
C 436.522 333.289 434.516 333.335 432.506 333.318
C 431.699 333.312 430.506 333.545 429.783 333.177
C 429.71 331.915 429.586 330.587 429.792 329.338 Z"
opacity="1" fill="rgb(12,76,127)" fill-rule="evenodd" />
<path d="
M 453.976 256.678
C 456.186 256.578 458.369 256.532 460.583 256.529
C 461.455 256.528 462.86 256.266 463.525 256.808
C 464.365 259.525 465.855 262.155 467.012 264.758
C 469.126 269.516 470.99 274.386 473.085 279.154
C 474.264 281.838 475.358 284.543 476.467 287.256
C 476.829 288.143 476.959 289.278 477.483 290.063
C 478.418 286.663 480.156 283.435 481.546 280.202
C 484.923 272.344 488.63 264.626 491.876 256.714
C 494.116 256.269 498.919 255.949 501.028 256.829
C 499.125 262.706 495.781 268.3 493.272 273.947
C 489.166 283.191 485.159 292.491 480.952 301.691
C 479.097 305.748 477.089 309.749 475.326 313.845
C 474.746 315.194 474.076 317.886 472.954 318.834
C 469.983 319.15 466.864 318.952 463.878 318.998
C 463.548 318.036 465.534 314.965 465.971 313.967
C 467.521 310.421 469.197 306.923 470.661 303.34
C 471.176 302.081 472.398 300.394 472.273 298.996
C 472.153 297.641 471.355 296.088 470.849 294.833
C 469.722 292.036 468.469 289.282 467.253 286.522
C 462.872 276.587 457.681 266.888 453.976 256.678 Z"
opacity="1" fill="rgb(12,81,130)" fill-rule="evenodd" />

</svg>